<mxfile host="app.diagrams.net" modified="2023-09-16T19:12:40.560Z" agent="Mozilla/5.0 (X11; Linux x86_64) AppleWebKit/537.36 (KHTML, like Gecko) Chrome/116.0.0.0 Safari/537.36" version="21.7.5" etag="xfkFF8NBVt1-QED0890y" type="github">
  <diagram name="Page-1" id="TzBhoph3AAJKeZvpLtGo">
    <mxGraphModel>
      <root>
        <mxCell id="0" />
        <mxCell id="1" parent="0" />
      </root>
    </mxGraphModel>
  </diagram>
</mxfile>
